<svg width="20" height="9" viewBox="0 0 20 9" fill="none" xmlns="http://www.w3.org/2000/svg">
<g id="ico-shape">
<path id="Vector (Stroke)" fill-rule="evenodd" clip-rule="evenodd" d="M0.248047 4.5C0.248047 4.22386 0.497819 4 0.805929 4L18.6581 4C18.9663 4 19.216 4.22386 19.216 4.5C19.216 4.77614 18.9663 5 18.6581 5L0.805929 5C0.497819 5 0.248047 4.77614 0.248047 4.5Z" fill="white"/>
<path id="Vector 2 (Stroke)" fill-rule="evenodd" clip-rule="evenodd" d="M14.3587 0.646447C14.5766 0.451184 14.9298 0.451184 15.1477 0.646447L19.4473 4.5L15.1477 8.35355C14.9298 8.54882 14.5766 8.54882 14.3587 8.35355C14.1408 8.15829 14.1408 7.84171 14.3587 7.64645L17.8694 4.5L14.3587 1.35355C14.1408 1.15829 14.1408 0.841709 14.3587 0.646447Z" fill="white"/>
</g>
</svg>
